<svg width="50" height="50" viewBox="0 0 256 256" fill="currentColor" xmlns="http://www.w3.org/2000/svg" stroke="currentColor" stroke-width="0" color="" class="raster-icon" aria-label="x">
  <rect width="14" height="14" rx="7" transform="matrix(0 -1 -1 0 120 152)"></rect>
  <rect width="14" height="14" rx="7" transform="matrix(0 -1 -1 0 104 168)"></rect>
  <rect width="14" height="14" rx="7" transform="matrix(0 -1 -1 0 184 184)"></rect>
  <rect width="14" height="14" rx="7" transform="matrix(0 -1 -1 0 88 184)"></rect>
  <rect width="14" height="14" rx="7" transform="matrix(0 -1 -1 0 168 104)"></rect>
  <rect width="14" height="14" rx="7" transform="matrix(0 -1 -1 0 184 88)"></rect>
  <rect width="14" height="14" rx="7" transform="matrix(0 -1 -1 0 200 72)"></rect>
  <rect width="14" height="14" rx="7" transform="matrix(0 -1 -1 0 200 200)"></rect>
  <rect width="14" height="14" rx="7" transform="matrix(0 -1 -1 0 152 120)"></rect>
  <rect width="14" height="14" rx="7" transform="matrix(0 -1 -1 0 152 152)"></rect>
  <rect width="14" height="14" rx="7" transform="matrix(0 -1 -1 0 136 136)"></rect>
  <rect width="14" height="14" rx="7" transform="matrix(0 -1 -1 0 120 120)"></rect>
  <rect width="14" height="14" rx="7" transform="matrix(0 -1 -1 0 136 136)"></rect>
  <rect width="14" height="14" rx="7" transform="matrix(0 -1 -1 0 168 168)"></rect>
  <rect width="14" height="14" rx="7" transform="matrix(0 -1 -1 0 88 88)"></rect>
  <rect width="14" height="14" rx="7" transform="matrix(0 -1 -1 0 72 72)"></rect>
  <rect width="14" height="14" rx="7" transform="matrix(0 -1 -1 0 72 200)"></rect>
  <rect width="14" height="14" rx="7" transform="matrix(0 -1 -1 0 104 104)"></rect>
</svg>