<svg width="20" height="20" viewBox="0 0 256 256" fill="currentColor" xmlns="http://www.w3.org/2000/svg" stroke="currentColor" stroke-width="0.25" color="" class="raster-icon" aria-label="arrow-down-to-line">
  <rect x="120" y="48" width="14" height="14" rx="1"></rect>
  <rect x="120" y="64" width="14" height="14" rx="1"></rect>
  <rect x="120" y="80" width="14" height="14" rx="1"></rect>
  <rect x="120" y="96" width="14" height="14" rx="1"></rect>
  <rect x="120" y="112" width="14" height="14" rx="1"></rect>
  <rect x="120" y="128" width="14" height="14" rx="1"></rect>
  <rect x="120" y="144" width="14" height="14" rx="1"></rect>
  <rect x="120" y="160" width="14" height="14" rx="1"></rect>
  <rect x="136" y="144" width="14" height="14" rx="1"></rect>
  <rect x="152" y="128" width="14" height="14" rx="1"></rect>
  <rect x="104" y="144" width="14" height="14" rx="1"></rect>
  <rect x="88" y="128" width="14" height="14" rx="1"></rect>
  <rect x="72" y="112" width="14" height="14" rx="1"></rect>
  <rect x="168" y="112" width="14" height="14" rx="1"></rect>
  <rect x="64" y="192" width="14" height="14" rx="1"></rect>
  <rect x="96" y="192" width="14" height="14" rx="1"></rect>
  <rect x="80" y="192" width="14" height="14" rx="1"></rect>
  <rect x="112" y="192" width="14" height="14" rx="1"></rect>
  <rect x="144" y="192" width="14" height="14" rx="1"></rect>
  <rect x="160" y="192" width="14" height="14" rx="1"></rect>
  <rect x="176" y="192" width="14" height="14" rx="1"></rect>
  <rect x="128" y="192" width="14" height="14" rx="1"></rect>
</svg>