<svg xmlns="http://www.w3.org/2000/svg" viewBox="0 0 24 24" id="Interface-Essential-Search-1--Streamline-Pixel" height="24" width="24">
  <desc>
    Interface Essential Search 1 Streamline Icon: https://streamlinehq.com
  </desc>
  <title>interface-essential-search-1</title>
  <g>
    <path d="m18.285 14.857499999999998 -1.1475 0 0 2.2874999999999996 -2.2800000000000002 0 0 1.1400000000000001 -2.2874999999999996 0 0 1.1400000000000001 3.4275 0 0 1.1475 1.1400000000000001 0 0 1.1400000000000001 1.1475 0 0 1.1475 1.1400000000000001 0 0 1.1400000000000001 1.1475 0 0 -1.1400000000000001 1.1400000000000001 0 0 -1.1475 1.1400000000000001 0 0 -1.1400000000000001 1.1475 0 0 -1.1475 -1.1475 0 0 -1.1400000000000001 -1.1400000000000001 0 0 -1.1400000000000001 -1.1400000000000001 0 0 -1.1475 -1.1475 0 0 -3.4275 -1.1400000000000001 0 0 2.2874999999999996z" fill="#000000" stroke-width="0.75"></path>
    <path d="M19.424999999999997 8.0025h1.1475v4.5675H19.424999999999997Z" fill="#000000" stroke-width="0.75"></path>
    <path d="M18.285 5.715h1.1400000000000001v2.2874999999999996h-1.1400000000000001Z" fill="#000000" stroke-width="0.75"></path>
    <path d="M17.137500000000003 3.4275h1.1475v2.2874999999999996h-1.1475Z" fill="#000000" stroke-width="0.75"></path>
    <path d="M15.997499999999999 9.1425h1.1400000000000001v2.2874999999999996h-1.1400000000000001Z" fill="#000000" stroke-width="0.75"></path>
    <path d="M14.857499999999998 6.855h1.1400000000000001v2.2874999999999996h-1.1400000000000001Z" fill="#000000" stroke-width="0.75"></path>
    <path d="M14.857499999999998 2.2874999999999996h2.2800000000000002v1.1400000000000001h-2.2800000000000002Z" fill="#000000" stroke-width="0.75"></path>
    <path d="M12.57 5.715h2.2874999999999996v1.1400000000000001h-2.2874999999999996Z" fill="#000000" stroke-width="0.75"></path>
    <path d="M12.57 1.1400000000000001h2.2874999999999996v1.1475h-2.2874999999999996Z" fill="#000000" stroke-width="0.75"></path>
    <path d="M10.2825 4.574999999999999h2.2874999999999996v1.1400000000000001h-2.2874999999999996Z" fill="#000000" stroke-width="0.75"></path>
    <path d="M7.995 19.424999999999997h4.574999999999999v1.1475h-4.574999999999999Z" fill="#000000" stroke-width="0.75"></path>
    <path d="M7.995 0h4.574999999999999v1.1400000000000001h-4.574999999999999Z" fill="#000000" stroke-width="0.75"></path>
    <path d="M5.715 18.285h2.2800000000000002v1.1400000000000001H5.715Z" fill="#000000" stroke-width="0.75"></path>
    <path d="M5.715 1.1400000000000001h2.2800000000000002v1.1475H5.715Z" fill="#000000" stroke-width="0.75"></path>
    <path d="M3.4275 17.145h2.2874999999999996v1.1400000000000001H3.4275Z" fill="#000000" stroke-width="0.75"></path>
    <path d="M3.4275 2.2874999999999996h2.2874999999999996v1.1400000000000001H3.4275Z" fill="#000000" stroke-width="0.75"></path>
    <path d="M2.2874999999999996 14.857499999999998h1.1400000000000001v2.2874999999999996H2.2874999999999996Z" fill="#000000" stroke-width="0.75"></path>
    <path d="M2.2874999999999996 3.4275h1.1400000000000001v2.2874999999999996H2.2874999999999996Z" fill="#000000" stroke-width="0.75"></path>
    <path d="M1.1400000000000001 12.57h1.1475v2.2874999999999996H1.1400000000000001Z" fill="#000000" stroke-width="0.75"></path>
    <path d="M1.1400000000000001 5.715h1.1475v2.2874999999999996H1.1400000000000001Z" fill="#000000" stroke-width="0.75"></path>
    <path d="M0 8.0025h1.1400000000000001v4.5675H0Z" fill="#000000" stroke-width="0.75"></path>
  </g>
</svg>