<svg width="50" height="50" viewBox="0 0 256 256" fill="currentColor" xmlns="http://www.w3.org/2000/svg" stroke="currentColor" stroke-width="0" color="" class="raster-icon" aria-label="menu">
  <rect x="176" y="88" width="14" height="14" rx="7"></rect>
  <rect x="64" y="88" width="14" height="14" rx="7"></rect>
  <rect x="80" y="88" width="14" height="14" rx="7"></rect>
  <rect x="96" y="88" width="14" height="14" rx="7"></rect>
  <rect x="112" y="88" width="14" height="14" rx="7"></rect>
  <rect x="128" y="88" width="14" height="14" rx="7"></rect>
  <rect x="144" y="88" width="14" height="14" rx="7"></rect>
  <rect x="160" y="88" width="14" height="14" rx="7"></rect>
  <rect x="176" y="120" width="14" height="14" rx="7"></rect>
  <rect x="64" y="120" width="14" height="14" rx="7"></rect>
  <rect x="80" y="120" width="14" height="14" rx="7"></rect>
  <rect x="96" y="120" width="14" height="14" rx="7"></rect>
  <rect x="112" y="120" width="14" height="14" rx="7"></rect>
  <rect x="128" y="120" width="14" height="14" rx="7"></rect>
  <rect x="144" y="120" width="14" height="14" rx="7"></rect>
  <rect x="160" y="120" width="14" height="14" rx="7"></rect>
  <rect x="176" y="152" width="14" height="14" rx="7"></rect>
  <rect x="64" y="152" width="14" height="14" rx="7"></rect>
  <rect x="80" y="152" width="14" height="14" rx="7"></rect>
  <rect x="96" y="152" width="14" height="14" rx="7"></rect>
  <rect x="112" y="152" width="14" height="14" rx="7"></rect>
  <rect x="128" y="152" width="14" height="14" rx="7"></rect>
  <rect x="144" y="152" width="14" height="14" rx="7"></rect>
  <rect x="160" y="152" width="14" height="14" rx="7"></rect>
</svg>