<svg width="50" height="50" viewBox="0 0 256 256" fill="currentColor" xmlns="http://www.w3.org/2000/svg" stroke="currentColor" stroke-width="0" color="" class="raster-icon" aria-label="search">
  <rect x="88" y="56" width="14" height="14" rx="7"></rect>
  <rect x="72" y="72" width="14" height="14" rx="7"></rect>
  <rect x="56" y="88" width="14" height="14" rx="7"></rect>
  <rect x="56" y="104" width="14" height="14" rx="7"></rect>
  <rect x="56" y="120" width="14" height="14" rx="7"></rect>
  <rect x="72" y="136" width="14" height="14" rx="7"></rect>
  <rect x="88" y="152" width="14" height="14" rx="7"></rect>
  <rect x="104" y="152" width="14" height="14" rx="7"></rect>
  <rect x="120" y="152" width="14" height="14" rx="7"></rect>
  <rect x="136" y="136" width="14" height="14" rx="7"></rect>
  <rect x="152" y="120" width="14" height="14" rx="7"></rect>
  <rect x="152" y="104" width="14" height="14" rx="7"></rect>
  <rect x="152" y="88" width="14" height="14" rx="7"></rect>
  <rect x="136" y="72" width="14" height="14" rx="7"></rect>
  <rect x="120" y="56" width="14" height="14" rx="7"></rect>
  <rect x="104" y="56" width="14" height="14" rx="7"></rect>
  <rect x="152" y="152" width="14" height="14" rx="7"></rect>
  <rect x="168" y="168" width="14" height="14" rx="7"></rect>
  <rect x="184" y="184" width="14" height="14" rx="7"></rect>
</svg>